<svg width="136" height="47" viewBox="0 0 136 47" fill="none" xmlns="http://www.w3.org/2000/svg">
<g clip-path="url(#clip0_28_141)">
<g clip-path="url(#clip1_28_141)">
<path fill-rule="evenodd" clip-rule="evenodd" d="M46.6761 17.629C51.6391 19.651 51.0261 26.935 47.5161 29.005C46.1611 29.805 44.7151 30.247 43.1661 30.336C40.2451 30.503 37.3201 30.378 34.3981 30.406C33.0721 30.42 31.7471 30.422 30.4211 30.405C28.9341 30.385 28.3211 29.757 28.3201 28.271C28.3181 21.201 28.3181 14.132 28.3201 7.064C28.3211 5.622 28.9631 4.96601 30.3911 4.96301C34.2831 4.95601 38.1751 4.94901 42.0671 4.96601C43.4821 4.97201 44.8731 5.18401 46.1951 5.71801C48.5681 6.67701 49.8381 8.47101 50.0911 10.989C50.1731 11.802 50.1611 12.624 50.0131 13.441C49.6861 15.247 48.7001 16.543 47.0621 17.355C46.9501 17.41 46.8371 17.466 46.7261 17.525C46.7151 17.531 46.7111 17.558 46.6761 17.629ZM37.9921 25.984C37.9921 25.966 37.9921 25.948 37.9921 25.931C39.5041 25.931 41.0171 25.97 42.5281 25.921C44.1081 25.869 45.2221 25.093 45.5691 23.827C46.1071 21.867 45.5021 19.613 42.6441 19.493C39.4561 19.359 36.2581 19.441 33.0651 19.417C32.6681 19.414 32.6991 19.65 32.7001 19.91C32.7031 21.655 32.7271 23.4 32.6881 25.143C32.6731 25.784 32.9061 25.997 33.5171 25.989C35.0081 25.97 36.4991 25.984 37.9921 25.984ZM37.7041 15.694C39.0721 15.694 40.4391 15.691 41.8071 15.695C42.4641 15.697 43.1111 15.621 43.7341 15.421C44.6821 15.116 45.3341 14.5 45.5451 13.504C46.0271 11.23 44.7361 9.46601 42.4131 9.40301C39.3861 9.32101 36.3551 9.372 33.3251 9.359C32.8651 9.35801 32.6931 9.56701 32.6971 10.015C32.7081 11.762 32.7121 13.508 32.6931 15.254C32.6891 15.626 32.8161 15.705 33.1611 15.701C34.6741 15.684 36.1891 15.694 37.7041 15.694Z" fill="white"/>
<path fill-rule="evenodd" clip-rule="evenodd" d="M76.7671 30.408C75.1311 30.408 73.6001 30.402 72.0681 30.413C71.7321 30.415 71.6621 30.166 71.5381 29.957C69.7961 27.012 68.0461 24.072 66.3281 21.113C66.0921 20.707 65.8401 20.583 65.3881 20.589C63.4941 20.614 61.6001 20.599 59.7061 20.6C58.8701 20.601 58.7611 20.702 58.7591 21.538C58.7551 24.253 58.7351 26.968 58.7751 29.681C58.7851 30.319 58.5881 30.45 58.0011 30.422C56.9301 30.374 55.8551 30.394 54.7821 30.416C54.3991 30.425 54.2821 30.318 54.2831 29.922C54.2991 26.597 54.2681 23.273 54.3001 19.948C54.3231 17.498 55.5561 16.323 58.0651 16.309C61.4321 16.291 64.7991 16.314 68.1661 16.301C70.7831 16.292 72.3621 14.077 71.5501 11.584C71.1021 10.211 69.9161 9.449 68.1941 9.447C63.7751 9.444 59.3561 9.434 54.9371 9.461C54.3671 9.464 54.2361 9.311 54.2591 8.766C54.3041 7.674 54.2871 6.578 54.2641 5.485C54.2561 5.103 54.3181 4.947 54.7621 4.948C59.3071 4.967 63.8531 4.935 68.3981 4.97C70.6271 4.988 72.7021 5.559 74.2921 7.239C75.9691 9.01 76.4141 11.201 76.1891 13.552C75.9841 15.68 75.1741 17.527 73.4801 18.915C72.8551 19.427 72.1561 19.817 71.3951 20.06C70.9451 20.205 70.9091 20.325 71.1481 20.729C72.9581 23.805 74.7411 26.896 76.5321 29.982C76.5941 30.09 76.6521 30.201 76.7671 30.408Z" fill="white"/>
<path fill-rule="evenodd" clip-rule="evenodd" d="M117.224 14.074C117.224 14.302 117.224 14.531 117.224 14.759C117.224 19.134 117.228 23.509 117.222 27.885C117.221 29.029 116.655 29.871 115.67 30.243C114.725 30.601 113.708 30.368 113.015 29.628C112.578 29.162 112.363 28.603 112.362 27.968C112.359 21.132 112.355 14.296 112.365 7.458C112.366 6.164 113.185 5.205 114.479 5.038C116.501 4.777 117.239 5.289 118.067 6.577C121.166 11.399 124.315 16.188 127.446 20.989C127.548 21.144 127.658 21.292 127.871 21.597C127.871 20.265 127.87 19.104 127.871 17.943C127.872 17.523 127.859 17.104 128.01 16.697C128.373 15.714 129.234 15.122 130.414 15.086C131.023 15.067 131.636 15.11 132.244 15.073C132.66 15.048 132.722 15.22 132.721 15.584C132.71 19.728 132.719 23.873 132.711 28.016C132.708 29.285 131.815 30.239 130.555 30.393C128.978 30.586 127.815 30.136 126.9 28.689C123.872 23.898 120.731 19.178 117.632 14.431C117.545 14.297 117.452 14.167 117.361 14.036C117.315 14.049 117.269 14.062 117.224 14.074Z" fill="white"/>
<path fill-rule="evenodd" clip-rule="evenodd" d="M13.5241 12.417C12.8841 14.203 12.2991 15.837 11.7131 17.471C10.2311 21.596 8.74211 25.72 7.27511 29.849C7.12611 30.27 6.93911 30.478 6.47311 30.415C6.16211 30.374 5.84311 30.411 5.52711 30.407C3.65711 30.39 2.59111 28.909 3.21611 27.148C4.40811 23.788 5.62411 20.437 6.83211 17.083C8.06911 13.65 9.3091 10.218 10.5501 6.787C11.0311 5.457 11.7421 4.961 13.1501 4.96C13.9071 4.96 14.6661 4.978 15.4231 4.952C15.7681 4.94 15.9431 5.03 16.0651 5.377C17.5631 9.652 19.0881 13.918 20.5831 18.194C21.0231 19.453 20.3791 20.736 19.1671 21.154C17.8951 21.592 16.5931 21.011 16.1331 19.747C15.2661 17.365 14.4301 14.969 13.5241 12.417Z" fill="white"/>
<path fill-rule="evenodd" clip-rule="evenodd" d="M20.7711 25.649C21.4441 25.649 22.1171 25.663 22.7891 25.642C23.1061 25.632 23.2741 25.718 23.3841 26.043C23.8231 27.355 24.2801 28.66 24.7661 29.954C24.9151 30.35 24.8141 30.42 24.4391 30.413C23.4721 30.397 22.5041 30.425 21.5381 30.402C20.4881 30.379 19.7361 29.871 19.3611 28.885C19.0041 27.947 18.7061 26.984 18.3541 26.042C18.2351 25.723 18.2961 25.636 18.6271 25.642C19.3421 25.659 20.0571 25.649 20.7711 25.649Z" fill="white"/>
<path fill-rule="evenodd" clip-rule="evenodd" d="M50.0491 40.008C50.0491 41.538 50.0301 43.068 50.0601 44.597C50.0701 45.063 49.9021 45.16 49.4861 45.135C49.2161 45.118 49.1851 45.006 49.1861 44.785C49.1911 42.745 49.1881 40.703 49.1921 38.662C49.1921 38.516 49.1131 38.279 49.3901 38.298C49.7001 38.319 50.0371 38.162 50.2861 38.555C50.9591 39.619 51.6771 40.659 52.3771 41.707C52.7671 42.288 53.1581 42.869 53.6551 43.609C53.6551 41.888 53.6631 40.362 53.6501 38.836C53.6461 38.476 53.6671 38.273 54.1351 38.273C54.6441 38.271 54.5311 38.57 54.5311 38.841C54.5341 40.715 54.5391 42.587 54.5241 44.459C54.5221 44.676 54.7001 45.033 54.3731 45.102C54.0091 45.176 53.6311 45.213 53.3461 44.754C52.5721 43.506 51.7281 42.3 50.9121 41.078C50.6691 40.715 50.4261 40.35 50.1821 39.988C50.1371 39.994 50.0931 40.002 50.0491 40.008Z" fill="white"/>
<path fill-rule="evenodd" clip-rule="evenodd" d="M100.777 41.574C102.227 41.574 102.242 41.574 102.219 42.982C102.211 43.407 102.431 43.926 102.08 44.247C101.414 44.853 100.588 45.185 99.6821 45.246C98.1311 45.353 96.8671 44.67 96.2901 43.444C95.6321 42.044 95.9011 40.108 96.8981 39.072C98.3191 37.597 101.255 37.946 101.954 39.688C102.009 39.823 102.353 40.088 101.907 40.216C101.629 40.297 101.343 40.531 101.159 40.046C100.8 39.104 99.9991 38.898 99.1081 38.942C98.1651 38.989 97.4681 39.455 97.1191 40.339C96.8031 41.144 96.7851 41.985 97.0151 42.817C97.4951 44.558 99.6901 44.984 101.156 43.844C101.306 43.727 101.415 42.474 101.277 42.406C101.137 42.338 100.952 42.35 100.787 42.346C100.451 42.339 100.114 42.335 99.7771 42.347C99.5021 42.356 99.3131 42.351 99.3191 41.963C99.3231 41.598 99.4711 41.552 99.7671 41.567C100.103 41.588 100.44 41.574 100.777 41.574Z" fill="white"/>
<path fill-rule="evenodd" clip-rule="evenodd" d="M67.2881 41.545C67.2611 44.359 65.0721 45.926 62.7571 45.006C61.0041 44.309 60.2341 41.894 61.1431 39.938C61.9011 38.307 63.9441 37.657 65.5931 38.545C66.8691 39.232 67.2521 40.412 67.2881 41.545ZM61.7301 41.689C61.7221 43.089 62.2581 44.004 63.2891 44.357C64.5071 44.773 65.7461 44.158 66.1561 42.932C66.7241 41.234 66.0851 39.479 64.7361 39.05C64.5381 38.987 64.3271 38.947 64.1211 38.94C62.6411 38.89 61.7391 39.932 61.7301 41.689Z" fill="white"/>
<path fill-rule="evenodd" clip-rule="evenodd" d="M83.5131 41.836C83.5591 38.93 85.9351 37.336 88.2701 38.518C90.0011 39.393 90.5801 42.044 89.4361 43.863C88.5031 45.342 86.2841 45.72 84.8311 44.633C83.8601 43.905 83.5301 42.874 83.5131 41.836ZM89.0701 41.594C89.0561 41.332 89.0271 40.958 88.9151 40.593C88.5781 39.498 87.7161 38.874 86.6141 38.938C85.5611 38.997 84.7811 39.712 84.5481 40.802C84.4501 41.258 84.4361 41.719 84.4691 42.178C84.5661 43.579 85.5631 44.527 86.8651 44.479C88.2051 44.429 89.0701 43.342 89.0701 41.594Z" fill="white"/>
<path fill-rule="evenodd" clip-rule="evenodd" d="M129.952 45.251C128.464 45.24 127.456 44.53 127.234 43.314C127.204 43.15 127.004 42.851 127.387 42.851C127.63 42.851 127.946 42.66 128.095 43.121C128.476 44.292 129.708 44.811 130.887 44.336C131.34 44.152 131.668 43.85 131.682 43.309C131.698 42.741 131.338 42.471 130.872 42.321C130.195 42.103 129.498 41.945 128.821 41.724C127.877 41.416 127.392 40.802 127.417 40.009C127.445 39.152 128.014 38.527 128.977 38.274C129.714 38.08 130.431 38.134 131.137 38.408C131.7 38.625 132.089 39.024 132.265 39.597C132.322 39.781 132.52 40.092 132.224 40.169C131.96 40.236 131.593 40.372 131.421 39.861C131.082 38.86 129.257 38.571 128.556 39.371C128.1 39.892 128.292 40.542 128.999 40.81C129.804 41.114 130.681 41.177 131.467 41.543C132.102 41.84 132.515 42.308 132.571 43.032C132.63 43.795 132.305 44.379 131.693 44.806C131.268 45.102 130.775 45.208 130.266 45.247C130.163 45.257 130.058 45.251 129.952 45.251Z" fill="white"/>
<path fill-rule="evenodd" clip-rule="evenodd" d="M127.87 9.884C127.846 9.707 127.943 9.539 128.016 9.367C128.56 8.1 129.109 6.833 129.65 5.565C129.776 5.269 129.893 4.97 130.285 4.962C130.677 4.954 130.807 5.243 130.935 5.541C131.494 6.849 132.053 8.156 132.618 9.461C132.749 9.765 132.839 10.066 132.554 10.327C132.269 10.587 131.954 10.527 131.704 10.291C130.742 9.387 129.833 9.499 128.854 10.301C128.379 10.692 127.885 10.44 127.87 9.884Z" fill="white"/>
<path fill-rule="evenodd" clip-rule="evenodd" d="M14.2241 41.77C14.2241 40.76 14.2391 39.749 14.2161 38.741C14.2081 38.391 14.2971 38.276 14.6631 38.282C16.0091 38.303 17.3551 38.296 18.7021 38.287C18.9821 38.286 19.1691 38.29 19.1681 38.673C19.1671 39.045 19.0011 39.071 18.7101 39.068C17.6591 39.057 16.6061 39.073 15.5551 39.057C15.2431 39.052 15.0951 39.114 15.1281 39.466C15.1821 40.025 14.8991 40.769 15.2411 41.095C15.5311 41.373 16.2721 41.187 16.8131 41.194C17.3811 41.202 17.9501 41.21 18.5171 41.19C18.8181 41.179 18.9121 41.278 18.9121 41.583C18.9121 41.889 18.8161 41.979 18.5161 41.975C17.5271 41.958 16.5391 41.981 15.5501 41.962C15.2291 41.955 15.1061 42.033 15.1251 42.375C15.1541 42.899 15.1561 43.429 15.1251 43.951C15.1041 44.305 15.2441 44.363 15.5561 44.36C16.6701 44.344 17.7851 44.36 18.9001 44.348C19.1731 44.345 19.3141 44.378 19.3131 44.712C19.3121 45.043 19.2231 45.137 18.8901 45.132C17.4811 45.113 16.0711 45.112 14.6611 45.133C14.2941 45.139 14.2081 45.022 14.2161 44.673C14.2391 43.706 14.2241 42.738 14.2241 41.77Z" fill="white"/>
<path fill-rule="evenodd" clip-rule="evenodd" d="M116.257 41.695C116.257 40.706 116.275 39.716 116.248 38.728C116.238 38.361 116.362 38.278 116.709 38.283C118.054 38.302 119.401 38.297 120.747 38.286C121.042 38.284 121.198 38.319 121.2 38.684C121.202 39.072 121.005 39.068 120.73 39.065C119.678 39.058 118.626 39.076 117.575 39.054C117.24 39.048 117.131 39.149 117.162 39.476C117.214 40.035 116.933 40.757 117.28 41.107C117.546 41.374 118.272 41.188 118.795 41.194C119.363 41.2 119.932 41.208 120.499 41.189C120.801 41.18 120.944 41.234 120.947 41.593C120.951 41.987 120.743 41.971 120.473 41.969C119.527 41.963 118.578 41.99 117.633 41.956C117.229 41.941 117.123 42.07 117.16 42.448C117.22 43.069 116.897 43.901 117.287 44.256C117.625 44.563 118.444 44.345 119.051 44.351C119.682 44.357 120.314 44.366 120.944 44.346C121.235 44.336 121.355 44.407 121.342 44.724C121.33 44.996 121.311 45.137 120.973 45.132C119.522 45.111 118.07 45.112 116.619 45.131C116.287 45.135 116.248 45 116.252 44.724C116.266 43.715 116.257 42.705 116.257 41.695Z" fill="white"/>
<path fill-rule="evenodd" clip-rule="evenodd" d="M37.3441 41.666C37.3441 40.678 37.3581 39.688 37.3371 38.7C37.3291 38.366 37.4301 38.262 37.7581 38.283C38.0381 38.302 38.2881 38.241 38.2641 38.683C38.2261 39.374 38.2671 40.07 38.2471 40.764C38.2391 41.072 38.2951 41.213 38.6511 41.203C39.5551 41.177 40.4601 41.177 41.3631 41.203C41.7151 41.214 41.7791 41.083 41.7691 40.772C41.7501 40.08 41.7831 39.383 41.7551 38.691C41.7411 38.341 41.8691 38.268 42.1861 38.281C42.4781 38.295 42.6891 38.262 42.6831 38.69C42.6601 40.709 42.6621 42.727 42.6821 44.746C42.6851 45.128 42.5071 45.142 42.2261 45.127C41.9771 45.112 41.7321 45.189 41.7521 44.763C41.7911 43.987 41.7491 43.206 41.7701 42.43C41.7791 42.101 41.7291 41.944 41.3401 41.956C40.4581 41.987 39.5741 41.985 38.6921 41.958C38.3231 41.946 38.2351 42.073 38.2461 42.42C38.2701 43.197 38.2311 43.977 38.2631 44.754C38.2791 45.15 38.0691 45.129 37.7991 45.129C37.5301 45.128 37.3241 45.151 37.3351 44.755C37.3631 43.727 37.3441 42.696 37.3441 41.666Z" fill="white"/>
<path fill-rule="evenodd" clip-rule="evenodd" d="M31.1682 40.135C30.6682 40.377 30.3372 40.393 30.0092 39.772C29.3492 38.523 27.2942 38.659 26.6352 39.98C26.0582 41.136 26.0802 42.352 26.6712 43.5C27.0522 44.241 27.7672 44.521 28.5802 44.473C29.4172 44.423 29.9942 43.972 30.2662 43.181C30.3772 42.857 30.4692 42.715 30.8672 42.822C31.3052 42.94 31.3292 43.105 31.1692 43.474C30.6902 44.585 29.8652 45.2 28.6532 45.248C27.3802 45.3 26.3392 44.888 25.7552 43.669C25.2522 42.621 25.1762 41.521 25.4802 40.413C25.9842 38.581 27.9962 37.649 29.7492 38.405C30.4572 38.709 30.9142 39.267 31.1682 40.135Z" fill="white"/>
<path fill-rule="evenodd" clip-rule="evenodd" d="M5.08013 42.084C5.08013 41.244 5.05413 40.402 5.09113 39.563C5.11013 39.132 4.95913 39.028 4.56213 39.056C4.12313 39.088 3.67913 39.05 3.23913 39.069C2.95513 39.082 2.83613 39.017 2.83213 38.696C2.82813 38.353 2.94913 38.283 3.26513 38.285C4.77813 38.3 6.29113 38.302 7.80413 38.284C8.13813 38.28 8.22313 38.38 8.22613 38.707C8.22813 39.044 8.07713 39.077 7.80913 39.068C7.36913 39.052 6.92513 39.09 6.48613 39.055C6.10213 39.026 5.98913 39.139 5.99513 39.535C6.01813 41.216 5.99813 42.896 6.01013 44.578C6.01213 44.935 5.99713 45.149 5.52413 45.143C5.07513 45.138 5.07113 44.93 5.07613 44.604C5.08813 43.766 5.08013 42.925 5.08013 42.084Z" fill="white"/>
<path fill-rule="evenodd" clip-rule="evenodd" d="M73.3971 41.708C73.3971 40.762 73.3991 39.814 73.3951 38.868C73.3941 38.552 73.3241 38.264 73.8461 38.27C74.3291 38.275 74.3271 38.497 74.3251 38.845C74.3151 40.485 74.3371 42.127 74.3111 43.767C74.3041 44.214 74.3761 44.399 74.8821 44.366C75.6561 44.314 76.4371 44.363 77.2151 44.346C77.5181 44.34 77.6481 44.392 77.6571 44.747C77.6671 45.147 77.4601 45.127 77.1931 45.125C76.0791 45.121 74.9631 45.11 73.8481 45.132C73.4881 45.139 73.3801 45.032 73.3891 44.673C73.4111 43.686 73.3971 42.696 73.3971 41.708Z" fill="white"/>
<path fill-rule="evenodd" clip-rule="evenodd" d="M108.69 41.694C108.69 40.709 108.706 39.724 108.683 38.739C108.675 38.393 108.76 38.263 109.127 38.28C109.435 38.295 109.614 38.293 109.609 38.703C109.586 40.715 109.584 42.727 109.609 44.739C109.615 45.189 109.368 45.106 109.099 45.131C108.765 45.16 108.675 45.041 108.682 44.713C108.704 43.707 108.69 42.7 108.69 41.694Z" fill="white"/>
<path d="M88.4992 1.938C88.4992 1.938 84.9042 3.784 85.2632 12.425C85.4172 16.156 88.4882 20.151 89.5342 23.229C90.2442 25.314 89.7792 27.123 88.1302 27.985C85.4262 29.4 79.9112 25.329 79.3232 16.524C78.6892 7.007 88.4992 1.938 88.4992 1.938Z" fill="url(#paint0_linear_28_141)"/>
<path d="M109.619 19.281C109.619 19.281 109.987 15.257 102.501 10.926C99.2702 9.05601 94.2512 9.50701 91.0912 8.74101C88.9502 8.22101 87.6732 6.86001 87.8292 5.00501C88.0842 1.96301 94.4782 -0.50999 102.225 3.71601C110.599 8.28201 109.619 19.281 109.619 19.281Z" fill="url(#paint1_linear_28_141)"/>
<path d="M84.2252 28.829C84.2252 28.829 87.5262 31.16 95.0202 26.842C98.2542 24.977 100.374 20.405 102.618 18.051C104.137 16.457 105.955 16.031 107.484 17.094C109.99 18.836 108.936 25.609 101.402 30.207C93.2612 35.176 84.2252 28.829 84.2252 28.829Z" fill="url(#paint2_linear_28_141)"/>
</g>
</g>
<defs>
<linearGradient id="paint0_linear_28_141" x1="84.5748" y1="28.2607" x2="84.5748" y2="2.4944" gradientUnits="userSpaceOnUse">
<stop stop-color="#FF6A2A"/>
<stop offset="1" stop-color="#FFC215"/>
</linearGradient>
<linearGradient id="paint1_linear_28_141" x1="98.6406" y1="13.5361" x2="99.6171" y2="-0.0168658" gradientUnits="userSpaceOnUse">
<stop offset="0.1513" stop-color="#FF6A2A"/>
<stop offset="1" stop-color="#FFC215"/>
</linearGradient>
<linearGradient id="paint2_linear_28_141" x1="84.2267" y1="24.3095" x2="108.185" y2="24.3095" gradientUnits="userSpaceOnUse">
<stop offset="0.4511" stop-color="#FF6A2A"/>
<stop offset="1" stop-color="#FFC215"/>
</linearGradient>
<clipPath id="clip0_28_141">
<rect width="135" height="46" fill="white" transform="translate(0.287109 0.791016)"/>
</clipPath>
<clipPath id="clip1_28_141">
<rect width="135" height="47.5" fill="white" transform="translate(0.287109 -0.208984)"/>
</clipPath>
</defs>
</svg>
